<svg xmlns="http://www.w3.org/2000/svg" xmlns:xlink="http://www.w3.org/1999/xlink" width="500" zoomAndPan="magnify" viewBox="0 0 375 374.999991" height="500" preserveAspectRatio="xMidYMid meet" version="1.0"><defs><filter x="0%" y="0%" width="100%" height="100%" id="id1"><feColorMatrix values="0 0 0 0 1 0 0 0 0 1 0 0 0 0 1 0 0 0 1 0" color-interpolation-filters="sRGB"/></filter><g/><clipPath id="id2"><path d="M 0 0 L 186.472656 0 L 186.472656 188.527344 L 0 188.527344 Z M 0 0 " clip-rule="nonzero"/></clipPath><clipPath id="id3"><path d="M 0 0 L 186.472656 0 L 186.472656 40 L 0 40 Z M 0 0 " clip-rule="nonzero"/></clipPath><mask id="id4"><g filter="url(#id1)"><rect x="-37.5" width="450" fill="#000000" y="-37.499999" height="449.999989" fill-opacity="0.2"/></g></mask><clipPath id="id5"><path d="M 0 0 L 186.472656 0 L 186.472656 39.359375 L 0 39.359375 Z M 0 0 " clip-rule="nonzero"/></clipPath><clipPath id="id6"><rect x="0" width="187" y="0" height="40"/></clipPath><clipPath id="id7"><path d="M 186.472656 186.242188 L 375 186.242188 L 375 374.773438 L 186.472656 374.773438 Z M 186.472656 186.242188 " clip-rule="nonzero"/></clipPath><clipPath id="id8"><path d="M 186.472656 335 L 375 335 L 375 374.773438 L 186.472656 374.773438 Z M 186.472656 335 " clip-rule="nonzero"/></clipPath><mask id="id9"><g filter="url(#id1)"><rect x="-37.5" width="450" fill="#000000" y="-37.499999" height="449.999989" fill-opacity="0.2"/></g></mask><clipPath id="id10"><path d="M 0.472656 0.28125 L 189 0.28125 L 189 39.773438 L 0.472656 39.773438 Z M 0.472656 0.28125 " clip-rule="nonzero"/></clipPath><clipPath id="id11"><rect x="0" width="189" y="0" height="40"/></clipPath></defs><g fill="#0891b2" fill-opacity="1"><g transform="translate(72.578189, 281.695224)"><g><path d="M 18.40625 0 L 18.40625 -189.53125 L 59.5625 -189.53125 L 119.953125 -69.3125 L 179.515625 -189.53125 L 220.671875 -189.53125 L 220.671875 0 L 186.015625 0 L 186.015625 -130.78125 L 133.21875 -27.078125 L 105.875 -27.078125 L 53.0625 -130.78125 L 53.0625 0 Z M 18.40625 0 "/></g></g></g><g clip-path="url(#id2)"><path fill="#64db9b" d="M -1.460938 0.597656 L -2.058594 0 L -2.058594 188.527344 L 36.363281 150.105469 L 36.363281 39.015625 L 148.046875 39.015625 L 186.472656 0.597656 Z M -1.460938 0.597656 " fill-opacity="1" fill-rule="nonzero"/></g><g clip-path="url(#id3)"><g mask="url(#id4)"><g transform="matrix(1, 0, 0, 1, 0, 0)"><g clip-path="url(#id6)"><g clip-path="url(#id5)"><path fill="#ffffff" d="M 186.472656 0.597656 L -2.058594 0.597656 L 36.363281 39.015625 L 148.046875 39.015625 Z M 186.472656 0.597656 " fill-opacity="1" fill-rule="nonzero"/></g></g></g></g></g><g clip-path="url(#id7)"><path fill="#00c5b0" d="M 374.402344 374.175781 L 375 374.773438 L 375 186.242188 L 336.578125 224.667969 L 336.578125 335.753906 L 224.894531 335.753906 L 186.472656 374.175781 Z M 374.402344 374.175781 " fill-opacity="1" fill-rule="nonzero"/></g><g clip-path="url(#id8)"><g mask="url(#id9)"><g transform="matrix(1, 0, 0, 1, 186, 335)"><g clip-path="url(#id11)"><g clip-path="url(#id10)"><path fill="#ffffff" d="M 0.472656 39.175781 L 189 39.175781 L 150.578125 0.753906 L 38.894531 0.753906 Z M 0.472656 39.175781 " fill-opacity="1" fill-rule="nonzero"/></g></g></g></g></g></svg>